<?xml version="1.0" encoding="UTF-8" standalone="no"?>
<!DOCTYPE svg PUBLIC "-//W3C//DTD SVG 1.1//EN"
 "http://www.w3.org/Graphics/SVG/1.1/DTD/svg11.dtd">
<!-- Generated by graphviz version 2.38.0 (20140413.2041)
 -->
<!-- Title: G Pages: 1 -->
<svg width="975pt" height="214pt"
 viewBox="0.00 0.00 975.00 214.50" xmlns="http://www.w3.org/2000/svg" xmlns:xlink="http://www.w3.org/1999/xlink">
<g id="graph0" class="graph" transform="scale(1 1) rotate(0) translate(4 210.5)">
<title>G</title>
<polygon fill="white" stroke="none" points="-4,4 -4,-210.5 971,-210.5 971,4 -4,4"/>
<!-- 0 -->
<g id="node1" class="node"><title>0</title>
<ellipse fill="none" stroke="black" cx="31" cy="-151.5" rx="18" ry="18"/>
<ellipse fill="none" stroke="black" cx="31" cy="-151.5" rx="22" ry="22"/>
<text text-anchor="middle" x="31" y="-147.8" font-family="Times New Roman,serif" font-size="14.00">0</text>
</g>
<!-- 0&#45;&gt;0 -->
<g id="edge8" class="edge"><title>0&#45;&gt;0</title>
<path fill="none" stroke="black" d="M18.6953,-170.015C15.9609,-181.083 20.0625,-191.5 31,-191.5 38.3486,-191.5 42.6114,-186.797 43.7883,-180.355"/>
<polygon fill="black" stroke="black" points="47.2682,-179.841 43.3047,-170.015 40.2759,-180.168 47.2682,-179.841"/>
<text text-anchor="middle" x="31" y="-195.3" font-family="Times New Roman,serif" font-size="14.00">next[0] = 0</text>
</g>
<!-- 1 -->
<g id="node3" class="node"><title>1</title>
<ellipse fill="none" stroke="black" cx="182" cy="-151.5" rx="27" ry="18"/>
<text text-anchor="middle" x="182" y="-147.8" font-family="Times New Roman,serif" font-size="14.00">1</text>
</g>
<!-- 0&#45;&gt;1 -->
<g id="edge1" class="edge"><title>0&#45;&gt;1</title>
<path fill="none" stroke="black" d="M53.032,-151.5C76.8231,-151.5 115.99,-151.5 144.737,-151.5"/>
<polygon fill="black" stroke="black" points="144.808,-155 154.808,-151.5 144.808,-148 144.808,-155"/>
<text text-anchor="middle" x="102" y="-155.3" font-family="Times New Roman,serif" font-size="14.00">A</text>
</g>
<!-- 7 -->
<g id="node2" class="node"><title>7</title>
<ellipse fill="none" stroke="black" cx="945" cy="-151.5" rx="18" ry="18"/>
<ellipse fill="none" stroke="black" cx="945" cy="-151.5" rx="22" ry="22"/>
<text text-anchor="middle" x="945" y="-147.8" font-family="Times New Roman,serif" font-size="14.00">7</text>
</g>
<!-- 1&#45;&gt;0 -->
<g id="edge9" class="edge"><title>1&#45;&gt;0</title>
<path fill="none" stroke="black" d="M159.537,-141.004C151.424,-137.576 141.98,-134.212 133,-132.5 105.932,-127.337 97.8507,-126.307 71,-132.5 67.2571,-133.363 63.4577,-134.636 59.7729,-136.122"/>
<polygon fill="black" stroke="black" points="58.0366,-133.068 50.4038,-140.415 60.9529,-139.431 58.0366,-133.068"/>
<text text-anchor="middle" x="102" y="-136.3" font-family="Times New Roman,serif" font-size="14.00">next[1] = 0</text>
</g>
<!-- 2 -->
<g id="node4" class="node"><title>2</title>
<ellipse fill="none" stroke="black" cx="338" cy="-151.5" rx="27" ry="18"/>
<text text-anchor="middle" x="338" y="-147.8" font-family="Times New Roman,serif" font-size="14.00">2</text>
</g>
<!-- 1&#45;&gt;2 -->
<g id="edge2" class="edge"><title>1&#45;&gt;2</title>
<path fill="none" stroke="black" d="M209.124,-151.5C234.235,-151.5 272.411,-151.5 300.517,-151.5"/>
<polygon fill="black" stroke="black" points="300.748,-155 310.748,-151.5 300.748,-148 300.748,-155"/>
<text text-anchor="middle" x="262" y="-155.3" font-family="Times New Roman,serif" font-size="14.00">B</text>
</g>
<!-- 2&#45;&gt;0 -->
<g id="edge10" class="edge"><title>2&#45;&gt;0</title>
<path fill="none" stroke="black" d="M315.161,-141.662C290.82,-131.282 250.004,-115.596 213,-109.5 150.426,-99.1901 129.461,-98.923 71,-123.5 66.0368,-125.586 61.0952,-128.402 56.4804,-131.447"/>
<polygon fill="black" stroke="black" points="54.1842,-128.786 48.0889,-137.452 58.258,-134.479 54.1842,-128.786"/>
<text text-anchor="middle" x="182" y="-113.3" font-family="Times New Roman,serif" font-size="14.00">next[2] = 0</text>
</g>
<!-- 3 -->
<g id="node5" class="node"><title>3</title>
<ellipse fill="none" stroke="black" cx="494" cy="-151.5" rx="27" ry="18"/>
<text text-anchor="middle" x="494" y="-147.8" font-family="Times New Roman,serif" font-size="14.00">3</text>
</g>
<!-- 2&#45;&gt;3 -->
<g id="edge3" class="edge"><title>2&#45;&gt;3</title>
<path fill="none" stroke="black" d="M365.124,-151.5C390.235,-151.5 428.411,-151.5 456.517,-151.5"/>
<polygon fill="black" stroke="black" points="456.748,-155 466.748,-151.5 456.748,-148 456.748,-155"/>
<text text-anchor="middle" x="414" y="-155.3" font-family="Times New Roman,serif" font-size="14.00">C</text>
</g>
<!-- 3&#45;&gt;0 -->
<g id="edge11" class="edge"><title>3&#45;&gt;0</title>
<path fill="none" stroke="black" d="M488.938,-133.689C483.134,-112.882 470.253,-79.4085 445,-64.4995 421.271,-50.4905 410.513,-62.9612 383,-64.4995 243.681,-72.2894 192.127,-30.2267 71,-99.4995 61.2011,-105.104 53.1053,-114.268 46.8778,-123.354"/>
<polygon fill="black" stroke="black" points="43.8492,-121.595 41.485,-131.923 49.7736,-125.324 43.8492,-121.595"/>
<text text-anchor="middle" x="262" y="-66.2995" font-family="Times New Roman,serif" font-size="14.00">next[3] = 0</text>
</g>
<!-- 4 -->
<g id="node6" class="node"><title>4</title>
<ellipse fill="none" stroke="black" cx="650" cy="-151.5" rx="27" ry="18"/>
<text text-anchor="middle" x="650" y="-147.8" font-family="Times New Roman,serif" font-size="14.00">4</text>
</g>
<!-- 3&#45;&gt;4 -->
<g id="edge4" class="edge"><title>3&#45;&gt;4</title>
<path fill="none" stroke="black" d="M521.124,-151.5C546.235,-151.5 584.411,-151.5 612.517,-151.5"/>
<polygon fill="black" stroke="black" points="612.748,-155 622.748,-151.5 612.748,-148 612.748,-155"/>
<text text-anchor="middle" x="574" y="-155.3" font-family="Times New Roman,serif" font-size="14.00">A</text>
</g>
<!-- 4&#45;&gt;1 -->
<g id="edge12" class="edge"><title>4&#45;&gt;1</title>
<path fill="none" stroke="black" d="M642.287,-133.989C635.44,-118.866 623.218,-97.9972 605,-88.4995 517.509,-42.8876 480.52,-73.5033 383,-88.4995 321.895,-97.8959 253.848,-122.55 214.959,-138.083"/>
<polygon fill="black" stroke="black" points="213.213,-135.014 205.258,-142.012 215.841,-141.502 213.213,-135.014"/>
<text text-anchor="middle" x="414" y="-92.2995" font-family="Times New Roman,serif" font-size="14.00">next[4] = 1</text>
</g>
<!-- 5 -->
<g id="node7" class="node"><title>5</title>
<ellipse fill="none" stroke="black" cx="750" cy="-151.5" rx="27" ry="18"/>
<text text-anchor="middle" x="750" y="-147.8" font-family="Times New Roman,serif" font-size="14.00">5</text>
</g>
<!-- 4&#45;&gt;5 -->
<g id="edge5" class="edge"><title>4&#45;&gt;5</title>
<path fill="none" stroke="black" d="M677.005,-151.5C687.969,-151.5 700.92,-151.5 712.794,-151.5"/>
<polygon fill="black" stroke="black" points="712.874,-155 722.874,-151.5 712.874,-148 712.874,-155"/>
<text text-anchor="middle" x="700" y="-155.3" font-family="Times New Roman,serif" font-size="14.00">B</text>
</g>
<!-- 5&#45;&gt;2 -->
<g id="edge13" class="edge"><title>5&#45;&gt;2</title>
<path fill="none" stroke="black" d="M727.522,-141.123C713.504,-134.939 694.602,-127.691 677,-124.5 583.415,-107.529 557.565,-114.323 463,-124.5 432.14,-127.82 397.694,-135.663 372.954,-142.044"/>
<polygon fill="black" stroke="black" points="371.762,-138.739 362.984,-144.672 373.546,-145.508 371.762,-138.739"/>
<text text-anchor="middle" x="574" y="-119.3" font-family="Times New Roman,serif" font-size="14.00">next[5] = 2</text>
</g>
<!-- 6 -->
<g id="node8" class="node"><title>6</title>
<ellipse fill="none" stroke="black" cx="850" cy="-151.5" rx="27" ry="18"/>
<text text-anchor="middle" x="850" y="-147.8" font-family="Times New Roman,serif" font-size="14.00">6</text>
</g>
<!-- 5&#45;&gt;6 -->
<g id="edge6" class="edge"><title>5&#45;&gt;6</title>
<path fill="none" stroke="black" d="M777.005,-151.5C787.969,-151.5 800.92,-151.5 812.794,-151.5"/>
<polygon fill="black" stroke="black" points="812.874,-155 822.874,-151.5 812.874,-148 812.874,-155"/>
<text text-anchor="middle" x="800" y="-155.3" font-family="Times New Roman,serif" font-size="14.00">D</text>
</g>
<!-- 6&#45;&gt;0 -->
<g id="edge14" class="edge"><title>6&#45;&gt;0</title>
<path fill="none" stroke="black" d="M827.718,-140.894C776.934,-116.395 644.006,-57.0043 525,-44.4995 324.07,-23.3864 232.008,54.5464 71,-67.4995 54.1344,-80.2838 44.302,-102.128 38.729,-120.336"/>
<polygon fill="black" stroke="black" points="35.3495,-119.425 36.0535,-129.997 42.0956,-121.294 35.3495,-119.425"/>
<text text-anchor="middle" x="494" y="-48.2995" font-family="Times New Roman,serif" font-size="14.00">next[6] = 0</text>
</g>
<!-- 6&#45;&gt;7 -->
<g id="edge7" class="edge"><title>6&#45;&gt;7</title>
<path fill="none" stroke="black" d="M877.401,-151.5C888.42,-151.5 901.303,-151.5 912.787,-151.5"/>
<polygon fill="black" stroke="black" points="912.846,-155 922.846,-151.5 912.846,-148 912.846,-155"/>
<text text-anchor="middle" x="900" y="-155.3" font-family="Times New Roman,serif" font-size="14.00">B</text>
</g>
</g>
</svg>
